<svg xmlns="http://www.w3.org/2000/svg" xmlns:xlink="http://www.w3.org/1999/xlink" width="260" zoomAndPan="magnify" viewBox="0 0 194.87999 221.999995" height="296" preserveAspectRatio="xMidYMid meet" version="1.0"><defs><g/><clipPath id="ed1b692346"><path d="M 7.246094 75.960938 L 189.292969 75.960938 L 189.292969 215.292969 L 7.246094 215.292969 Z M 7.246094 75.960938 " clip-rule="nonzero"/></clipPath><clipPath id="94db32ca36"><path d="M 7.765625 7.871094 L 187.40625 7.871094 L 187.40625 76 L 7.765625 76 Z M 7.765625 7.871094 " clip-rule="nonzero"/></clipPath><clipPath id="59cff5eb65"><path d="M 97.441406 7.871094 L 187.113281 75.960938 L 7.765625 75.960938 L 97.441406 7.871094 " clip-rule="nonzero"/></clipPath><clipPath id="4b62670232"><path d="M 0.890625 1.128906 L 194.269531 1.128906 L 194.269531 220.742188 L 0.890625 220.742188 Z M 0.890625 1.128906 " clip-rule="nonzero"/></clipPath></defs><g clip-path="url(#ed1b692346)"><path fill="#1e4344" d="M 7.246094 75.960938 L 189.035156 75.960938 L 189.035156 215.726562 L 7.246094 215.726562 Z M 7.246094 75.960938 " fill-opacity="1" fill-rule="nonzero"/></g><g clip-path="url(#94db32ca36)"><g clip-path="url(#59cff5eb65)"><path fill="#1e4344" d="M 7.765625 7.871094 L 187.40625 7.871094 L 187.40625 75.238281 L 7.765625 75.238281 Z M 7.765625 7.871094 " fill-opacity="1" fill-rule="nonzero"/></g></g><g clip-path="url(#4b62670232)"><path fill="#c89a5b" d="M 190.980469 220.742188 L 4.183594 220.742188 C 2.363281 220.742188 0.886719 219.273438 0.886719 217.457031 L 0.886719 76.824219 C 0.886719 75.804688 1.359375 74.847656 2.164062 74.226562 L 95.5625 2.035156 C 96.75 1.113281 98.40625 1.113281 99.59375 2.035156 L 192.992188 74.226562 C 193.796875 74.847656 194.269531 75.804688 194.269531 76.824219 L 194.269531 217.457031 C 194.273438 219.273438 192.796875 220.742188 190.980469 220.742188 Z M 7.476562 214.171875 L 187.683594 214.171875 L 187.683594 78.433594 L 97.582031 8.792969 L 7.476562 78.433594 Z M 7.476562 214.171875 " fill-opacity="1" fill-rule="nonzero"/></g><g fill="#c89a5b" fill-opacity="1"><g transform="translate(26.543092, 165.765025)"><g><path d="M 45.84375 -61.875 C 45.84375 -52.925781 43.789062 -46.351562 39.6875 -42.15625 C 35.59375 -37.957031 29.53125 -35.859375 21.5 -35.859375 L 15.3125 -35.859375 L 15.3125 0 L 9.5 0 L 9.5 -86.8125 L 21.375 -86.8125 C 29.84375 -86.8125 36.035156 -84.8125 39.953125 -80.8125 C 43.878906 -76.8125 45.84375 -70.5 45.84375 -61.875 Z M 15.3125 -41.203125 L 21.140625 -41.203125 C 27.953125 -41.203125 32.78125 -42.804688 35.625 -46.015625 C 38.476562 -49.222656 39.90625 -54.507812 39.90625 -61.875 C 39.90625 -68.882812 38.429688 -73.898438 35.484375 -76.921875 C 32.535156 -79.953125 27.972656 -81.46875 21.796875 -81.46875 L 15.3125 -81.46875 Z M 15.3125 -41.203125 "/></g></g></g><g fill="#c89a5b" fill-opacity="1"><g transform="translate(76.413511, 165.765025)"><g/></g></g><g fill="#c89a5b" fill-opacity="1"><g transform="translate(99.273033, 165.765025)"><g/></g></g><g fill="#c89a5b" fill-opacity="1"><g transform="translate(122.128062, 165.765025)"><g><path d="M 48.984375 0 L 42.453125 0 L 22.03125 -43.28125 L 15.3125 -34.4375 L 15.3125 0 L 9.5 0 L 9.5 -86.8125 L 15.3125 -86.8125 L 15.3125 -40.859375 C 17.332031 -44.648438 25.882812 -59.96875 40.96875 -86.8125 L 47.328125 -86.8125 L 25.53125 -48.625 Z M 48.984375 0 "/></g></g></g><path stroke-linecap="round" transform="matrix(0.000000000000000046, 0.749538, -0.749538, 0.000000000000000046, 98.934662, 56.793885)" fill="none" stroke-linejoin="miter" d="M 2.000009 1.997445 L 178.009381 1.997445 " stroke="#c89a5b" stroke-width="4" stroke-opacity="1" stroke-miterlimit="4"/></svg>