<svg xmlns="http://www.w3.org/2000/svg" xmlns:xlink="http://www.w3.org/1999/xlink" width="500" zoomAndPan="magnify" viewBox="0 0 375 100.499997" height="134" preserveAspectRatio="xMidYMid meet" version="1.0"><defs><g/><clipPath id="f90556a69c"><path d="M 0.929688 0 L 88.242188 0 L 88.242188 100.003906 L 0.929688 100.003906 Z M 0.929688 0 " clip-rule="nonzero"/></clipPath></defs><g fill="#c89a5b" fill-opacity="1"><g transform="translate(103.836583, 70.884496)"><g><path d="M 10.09375 -24.515625 C 8.15625 -24.515625 6.613281 -23.488281 5.46875 -21.4375 C 4.320312 -19.382812 3.75 -16.546875 3.75 -12.921875 C 3.75 -10.554688 4.015625 -8.5 4.546875 -6.75 C 5.078125 -5 5.832031 -3.648438 6.8125 -2.703125 C 7.800781 -1.765625 8.945312 -1.296875 10.25 -1.296875 C 11.59375 -1.296875 12.75 -1.539062 13.71875 -2.03125 L 13.71875 -0.4375 C 12.800781 0.09375 11.59375 0.359375 10.09375 0.359375 C 8.46875 0.359375 7.039062 -0.164062 5.8125 -1.21875 C 4.582031 -2.28125 3.628906 -3.8125 2.953125 -5.8125 C 2.285156 -7.820312 1.953125 -10.203125 1.953125 -12.953125 C 1.953125 -17.066406 2.679688 -20.296875 4.140625 -22.640625 C 5.609375 -24.992188 7.609375 -26.171875 10.140625 -26.171875 C 11.710938 -26.171875 13.082031 -25.804688 14.25 -25.078125 L 13.46875 -23.5625 C 12.476562 -24.195312 11.351562 -24.515625 10.09375 -24.515625 Z M 10.09375 -24.515625 "/></g></g></g><g fill="#c89a5b" fill-opacity="1"><g transform="translate(124.0746, 70.884496)"><g><path d="M 16.8125 -12.921875 C 16.8125 -8.648438 16.171875 -5.367188 14.890625 -3.078125 C 13.617188 -0.785156 11.78125 0.359375 9.375 0.359375 C 6.945312 0.359375 5.101562 -0.796875 3.84375 -3.109375 C 2.582031 -5.421875 1.953125 -8.703125 1.953125 -12.953125 C 1.953125 -17.390625 2.570312 -20.695312 3.8125 -22.875 C 5.0625 -25.050781 6.929688 -26.140625 9.421875 -26.140625 C 11.828125 -26.140625 13.660156 -24.992188 14.921875 -22.703125 C 16.179688 -20.421875 16.8125 -17.160156 16.8125 -12.921875 Z M 3.75 -12.921875 C 3.75 -9.085938 4.226562 -6.191406 5.1875 -4.234375 C 6.144531 -2.273438 7.539062 -1.296875 9.375 -1.296875 C 11.21875 -1.296875 12.617188 -2.265625 13.578125 -4.203125 C 14.535156 -6.148438 15.015625 -9.054688 15.015625 -12.921875 C 15.015625 -16.734375 14.546875 -19.613281 13.609375 -21.5625 C 12.671875 -23.507812 11.273438 -24.484375 9.421875 -24.484375 C 7.535156 -24.484375 6.117188 -23.5 5.171875 -21.53125 C 4.222656 -19.5625 3.75 -16.691406 3.75 -12.921875 Z M 3.75 -12.921875 "/></g></g></g><g fill="#c89a5b" fill-opacity="1"><g transform="translate(147.923567, 70.884496)"><g><path d="M 16.390625 0 L 14.1875 0 L 4.4375 -23.109375 L 4.296875 -23.109375 C 4.441406 -21.503906 4.515625 -19.960938 4.515625 -18.484375 L 4.515625 0 L 2.8125 0 L 2.8125 -25.765625 L 5.0625 -25.765625 L 14.734375 -2.921875 L 14.84375 -2.921875 C 14.75 -4.847656 14.703125 -6.457031 14.703125 -7.75 L 14.703125 -25.765625 L 16.390625 -25.765625 Z M 16.390625 0 "/></g></g></g><g fill="#c89a5b" fill-opacity="1"><g transform="translate(172.212895, 70.884496)"><g><path d="M 12.703125 -6.75 C 12.703125 -4.632812 12.113281 -2.921875 10.9375 -1.609375 C 9.769531 -0.296875 8.28125 0.359375 6.46875 0.359375 C 4.414062 0.359375 2.765625 0.0546875 1.515625 -0.546875 L 1.515625 -2.421875 C 2.128906 -2.078125 2.882812 -1.800781 3.78125 -1.59375 C 4.6875 -1.394531 5.582031 -1.296875 6.46875 -1.296875 C 7.78125 -1.296875 8.859375 -1.796875 9.703125 -2.796875 C 10.554688 -3.796875 10.984375 -5.066406 10.984375 -6.609375 C 10.984375 -8.023438 10.679688 -9.148438 10.078125 -9.984375 C 9.484375 -10.828125 8.335938 -11.664062 6.640625 -12.5 C 5.316406 -13.164062 4.320312 -13.8125 3.65625 -14.4375 C 3 -15.070312 2.515625 -15.804688 2.203125 -16.640625 C 1.890625 -17.472656 1.734375 -18.472656 1.734375 -19.640625 C 1.734375 -20.898438 1.988281 -22.023438 2.5 -23.015625 C 3.019531 -24.003906 3.742188 -24.769531 4.671875 -25.3125 C 5.597656 -25.863281 6.613281 -26.140625 7.71875 -26.140625 C 8.71875 -26.140625 9.625 -26.023438 10.4375 -25.796875 C 11.257812 -25.578125 11.90625 -25.335938 12.375 -25.078125 L 11.703125 -23.421875 C 10.398438 -24.085938 9.070312 -24.421875 7.71875 -24.421875 C 6.445312 -24.421875 5.414062 -23.988281 4.625 -23.125 C 3.832031 -22.269531 3.4375 -21.128906 3.4375 -19.703125 C 3.4375 -18.253906 3.722656 -17.128906 4.296875 -16.328125 C 4.867188 -15.535156 6 -14.710938 7.6875 -13.859375 C 9.425781 -13.003906 10.695312 -12.007812 11.5 -10.875 C 12.300781 -9.75 12.703125 -8.375 12.703125 -6.75 Z M 12.703125 -6.75 "/></g></g></g><g fill="#c89a5b" fill-opacity="1"><g transform="translate(191.552579, 70.884496)"><g><path d="M 7.109375 0 L 5.375 0 L 5.375 -24.109375 L 0.25 -24.109375 L 0.25 -25.765625 L 12.234375 -25.765625 L 12.234375 -24.109375 L 7.109375 -24.109375 Z M 7.109375 0 "/></g></g></g><g fill="#c89a5b" fill-opacity="1"><g transform="translate(209.166057, 70.884496)"><g><path d="M 4.546875 -11.265625 L 4.546875 0 L 2.8125 0 L 2.8125 -25.765625 L 6.34375 -25.765625 C 8.851562 -25.765625 10.691406 -25.171875 11.859375 -23.984375 C 13.023438 -22.796875 13.609375 -21.019531 13.609375 -18.65625 C 13.609375 -16.875 13.289062 -15.40625 12.65625 -14.25 C 12.019531 -13.101562 10.957031 -12.242188 9.46875 -11.671875 L 14.578125 0 L 12.640625 0 L 7.828125 -11.265625 Z M 4.546875 -12.84375 L 6.96875 -12.84375 C 8.53125 -12.84375 9.734375 -13.320312 10.578125 -14.28125 C 11.421875 -15.25 11.84375 -16.6875 11.84375 -18.59375 C 11.84375 -20.53125 11.410156 -21.925781 10.546875 -22.78125 C 9.679688 -23.644531 8.320312 -24.078125 6.46875 -24.078125 L 4.546875 -24.078125 Z M 4.546875 -12.84375 "/></g></g></g><g fill="#c89a5b" fill-opacity="1"><g transform="translate(229.580223, 70.884496)"><g><path d="M 15.234375 -25.765625 L 15.234375 -8.375 C 15.234375 -2.550781 13.148438 0.359375 8.984375 0.359375 C 6.910156 0.359375 5.328125 -0.390625 4.234375 -1.890625 C 3.140625 -3.398438 2.59375 -5.5625 2.59375 -8.375 L 2.59375 -25.765625 L 4.328125 -25.765625 L 4.328125 -8.15625 C 4.328125 -5.925781 4.726562 -4.222656 5.53125 -3.046875 C 6.34375 -1.878906 7.492188 -1.296875 8.984375 -1.296875 C 10.460938 -1.296875 11.582031 -1.878906 12.34375 -3.046875 C 13.113281 -4.222656 13.5 -5.953125 13.5 -8.234375 L 13.5 -25.765625 Z M 15.234375 -25.765625 "/></g></g></g><g fill="#c89a5b" fill-opacity="1"><g transform="translate(252.495633, 70.884496)"><g><path d="M 10.09375 -24.515625 C 8.15625 -24.515625 6.613281 -23.488281 5.46875 -21.4375 C 4.320312 -19.382812 3.75 -16.546875 3.75 -12.921875 C 3.75 -10.554688 4.015625 -8.5 4.546875 -6.75 C 5.078125 -5 5.832031 -3.648438 6.8125 -2.703125 C 7.800781 -1.765625 8.945312 -1.296875 10.25 -1.296875 C 11.59375 -1.296875 12.75 -1.539062 13.71875 -2.03125 L 13.71875 -0.4375 C 12.800781 0.09375 11.59375 0.359375 10.09375 0.359375 C 8.46875 0.359375 7.039062 -0.164062 5.8125 -1.21875 C 4.582031 -2.28125 3.628906 -3.8125 2.953125 -5.8125 C 2.285156 -7.820312 1.953125 -10.203125 1.953125 -12.953125 C 1.953125 -17.066406 2.679688 -20.296875 4.140625 -22.640625 C 5.609375 -24.992188 7.609375 -26.171875 10.140625 -26.171875 C 11.710938 -26.171875 13.082031 -25.804688 14.25 -25.078125 L 13.46875 -23.5625 C 12.476562 -24.195312 11.351562 -24.515625 10.09375 -24.515625 Z M 10.09375 -24.515625 "/></g></g></g><g fill="#c89a5b" fill-opacity="1"><g transform="translate(272.733656, 70.884496)"><g><path d="M 7.109375 0 L 5.375 0 L 5.375 -24.109375 L 0.25 -24.109375 L 0.25 -25.765625 L 12.234375 -25.765625 L 12.234375 -24.109375 L 7.109375 -24.109375 Z M 7.109375 0 "/></g></g></g><g fill="#c89a5b" fill-opacity="1"><g transform="translate(290.347134, 70.884496)"><g><path d="M 2.8125 0 L 2.8125 -25.765625 L 4.546875 -25.765625 L 4.546875 0 Z M 2.8125 0 "/></g></g></g><g fill="#c89a5b" fill-opacity="1"><g transform="translate(302.799595, 70.884496)"><g><path d="M 16.8125 -12.921875 C 16.8125 -8.648438 16.171875 -5.367188 14.890625 -3.078125 C 13.617188 -0.785156 11.78125 0.359375 9.375 0.359375 C 6.945312 0.359375 5.101562 -0.796875 3.84375 -3.109375 C 2.582031 -5.421875 1.953125 -8.703125 1.953125 -12.953125 C 1.953125 -17.390625 2.570312 -20.695312 3.8125 -22.875 C 5.0625 -25.050781 6.929688 -26.140625 9.421875 -26.140625 C 11.828125 -26.140625 13.660156 -24.992188 14.921875 -22.703125 C 16.179688 -20.421875 16.8125 -17.160156 16.8125 -12.921875 Z M 3.75 -12.921875 C 3.75 -9.085938 4.226562 -6.191406 5.1875 -4.234375 C 6.144531 -2.273438 7.539062 -1.296875 9.375 -1.296875 C 11.21875 -1.296875 12.617188 -2.265625 13.578125 -4.203125 C 14.535156 -6.148438 15.015625 -9.054688 15.015625 -12.921875 C 15.015625 -16.734375 14.546875 -19.613281 13.609375 -21.5625 C 12.671875 -23.507812 11.273438 -24.484375 9.421875 -24.484375 C 7.535156 -24.484375 6.117188 -23.5 5.171875 -21.53125 C 4.222656 -19.5625 3.75 -16.691406 3.75 -12.921875 Z M 3.75 -12.921875 "/></g></g></g><g fill="#c89a5b" fill-opacity="1"><g transform="translate(326.648568, 70.884496)"><g><path d="M 16.390625 0 L 14.1875 0 L 4.4375 -23.109375 L 4.296875 -23.109375 C 4.441406 -21.503906 4.515625 -19.960938 4.515625 -18.484375 L 4.515625 0 L 2.8125 0 L 2.8125 -25.765625 L 5.0625 -25.765625 L 14.734375 -2.921875 L 14.84375 -2.921875 C 14.75 -4.847656 14.703125 -6.457031 14.703125 -7.75 L 14.703125 -25.765625 L 16.390625 -25.765625 Z M 16.390625 0 "/></g></g></g><g fill="#c89a5b" fill-opacity="1"><g transform="translate(350.9379, 70.884496)"><g><path d="M 12.703125 -6.75 C 12.703125 -4.632812 12.113281 -2.921875 10.9375 -1.609375 C 9.769531 -0.296875 8.28125 0.359375 6.46875 0.359375 C 4.414062 0.359375 2.765625 0.0546875 1.515625 -0.546875 L 1.515625 -2.421875 C 2.128906 -2.078125 2.882812 -1.800781 3.78125 -1.59375 C 4.6875 -1.394531 5.582031 -1.296875 6.46875 -1.296875 C 7.78125 -1.296875 8.859375 -1.796875 9.703125 -2.796875 C 10.554688 -3.796875 10.984375 -5.066406 10.984375 -6.609375 C 10.984375 -8.023438 10.679688 -9.148438 10.078125 -9.984375 C 9.484375 -10.828125 8.335938 -11.664062 6.640625 -12.5 C 5.316406 -13.164062 4.320312 -13.8125 3.65625 -14.4375 C 3 -15.070312 2.515625 -15.804688 2.203125 -16.640625 C 1.890625 -17.472656 1.734375 -18.472656 1.734375 -19.640625 C 1.734375 -20.898438 1.988281 -22.023438 2.5 -23.015625 C 3.019531 -24.003906 3.742188 -24.769531 4.671875 -25.3125 C 5.597656 -25.863281 6.613281 -26.140625 7.71875 -26.140625 C 8.71875 -26.140625 9.625 -26.023438 10.4375 -25.796875 C 11.257812 -25.578125 11.90625 -25.335938 12.375 -25.078125 L 11.703125 -23.421875 C 10.398438 -24.085938 9.070312 -24.421875 7.71875 -24.421875 C 6.445312 -24.421875 5.414062 -23.988281 4.625 -23.125 C 3.832031 -22.269531 3.4375 -21.128906 3.4375 -19.703125 C 3.4375 -18.253906 3.722656 -17.128906 4.296875 -16.328125 C 4.867188 -15.535156 6 -14.710938 7.6875 -13.859375 C 9.425781 -13.003906 10.695312 -12.007812 11.5 -10.875 C 12.300781 -9.75 12.703125 -8.375 12.703125 -6.75 Z M 12.703125 -6.75 "/></g></g></g><g clip-path="url(#f90556a69c)"><path fill="#c89a5b" d="M 86.757812 100.003906 L 2.414062 100.003906 C 1.59375 100.003906 0.929688 99.332031 0.929688 98.507812 L 0.929688 34.46875 C 0.929688 34.003906 1.140625 33.570312 1.503906 33.285156 L 43.675781 0.414062 C 44.210938 -0.0078125 44.960938 -0.0078125 45.496094 0.414062 L 87.667969 33.285156 C 88.03125 33.570312 88.242188 34.003906 88.242188 34.46875 L 88.242188 98.507812 C 88.242188 99.332031 87.578125 100.003906 86.757812 100.003906 Z M 3.902344 97.007812 L 85.269531 97.007812 L 85.269531 35.203125 L 44.585938 3.492188 L 3.902344 35.203125 Z M 3.902344 97.007812 " fill-opacity="1" fill-rule="nonzero"/></g><g fill="#c89a5b" fill-opacity="1"><g transform="translate(11.925393, 76.776727)"><g><path d="M 20.78125 -28.0625 C 20.78125 -24 19.851562 -21.015625 18 -19.109375 C 16.144531 -17.210938 13.394531 -16.265625 9.75 -16.265625 L 6.953125 -16.265625 L 6.953125 0 L 4.3125 0 L 4.3125 -39.359375 L 9.6875 -39.359375 C 13.53125 -39.359375 16.335938 -38.453125 18.109375 -36.640625 C 19.890625 -34.828125 20.78125 -31.96875 20.78125 -28.0625 Z M 6.953125 -18.6875 L 9.578125 -18.6875 C 12.671875 -18.6875 14.863281 -19.410156 16.15625 -20.859375 C 17.445312 -22.316406 18.09375 -24.71875 18.09375 -28.0625 C 18.09375 -31.238281 17.421875 -33.507812 16.078125 -34.875 C 14.742188 -36.25 12.675781 -36.9375 9.875 -36.9375 L 6.953125 -36.9375 Z M 6.953125 -18.6875 "/></g></g></g><g fill="#c89a5b" fill-opacity="1"><g transform="translate(34.539841, 76.776727)"><g/></g></g><g fill="#c89a5b" fill-opacity="1"><g transform="translate(44.905814, 76.776727)"><g/></g></g><g fill="#c89a5b" fill-opacity="1"><g transform="translate(55.269751, 76.776727)"><g><path d="M 22.21875 0 L 19.25 0 L 9.984375 -19.625 L 6.953125 -15.609375 L 6.953125 0 L 4.3125 0 L 4.3125 -39.359375 L 6.953125 -39.359375 L 6.953125 -18.53125 C 7.859375 -20.25 11.734375 -27.191406 18.578125 -39.359375 L 21.453125 -39.359375 L 11.578125 -22.046875 Z M 22.21875 0 "/></g></g></g><path stroke-linecap="round" transform="matrix(0.000000000000000046, 0.746429, -0.746287, 0.000000000000000046, 45.190837, 27.360271)" fill="none" stroke-linejoin="miter" d="M 1.500742 1.501466 L 80.48616 1.501466 " stroke="#c89a5b" stroke-width="3" stroke-opacity="1" stroke-miterlimit="4"/></svg>