<svg xmlns="http://www.w3.org/2000/svg" xmlns:xlink="http://www.w3.org/1999/xlink" width="500" zoomAndPan="magnify" viewBox="0 0 375 374.999991" height="500" preserveAspectRatio="xMidYMid meet" version="1.0"><defs><g/><clipPath id="28b7e34edd"><path d="M 60.5 5.476562 L 310.25 5.476562 L 310.25 288.976562 L 60.5 288.976562 Z M 60.5 5.476562 " clip-rule="nonzero"/></clipPath></defs><g clip-path="url(#28b7e34edd)"><path fill="#c89a5b" d="M 306 288.976562 L 64.75 288.976562 C 62.398438 288.976562 60.496094 287.082031 60.496094 284.734375 L 60.496094 103.191406 C 60.496094 101.878906 61.105469 100.644531 62.144531 99.839844 L 182.769531 6.648438 C 184.300781 5.460938 186.441406 5.460938 187.976562 6.648438 L 308.601562 99.839844 C 309.640625 100.644531 310.246094 101.878906 310.246094 103.191406 L 310.246094 284.734375 C 310.253906 287.082031 308.34375 288.976562 306 288.976562 Z M 69.003906 280.492188 L 301.738281 280.492188 L 301.738281 105.273438 L 185.375 15.375 L 69.003906 105.273438 Z M 69.003906 280.492188 " fill-opacity="1" fill-rule="nonzero"/></g><g fill="#c89a5b" fill-opacity="1"><g transform="translate(91.825795, 224.18158)"><g><path d="M 59.21875 -79.921875 C 59.21875 -68.359375 56.566406 -59.867188 51.265625 -54.453125 C 45.972656 -49.035156 38.140625 -46.328125 27.765625 -46.328125 L 19.78125 -46.328125 L 19.78125 0 L 12.265625 0 L 12.265625 -112.140625 L 27.609375 -112.140625 C 38.554688 -112.140625 46.5625 -109.554688 51.625 -104.390625 C 56.6875 -99.222656 59.21875 -91.066406 59.21875 -79.921875 Z M 19.78125 -53.234375 L 27.296875 -53.234375 C 36.097656 -53.234375 42.335938 -55.300781 46.015625 -59.4375 C 49.703125 -63.582031 51.546875 -70.410156 51.546875 -79.921875 C 51.546875 -88.972656 49.640625 -95.453125 45.828125 -99.359375 C 42.015625 -103.273438 36.117188 -105.234375 28.140625 -105.234375 L 19.78125 -105.234375 Z M 19.78125 -53.234375 "/></g></g></g><g fill="#c89a5b" fill-opacity="1"><g transform="translate(156.24459, 224.18158)"><g/></g></g><g fill="#c89a5b" fill-opacity="1"><g transform="translate(185.772771, 224.18158)"><g/></g></g><g fill="#c89a5b" fill-opacity="1"><g transform="translate(215.295151, 224.18158)"><g><path d="M 63.28125 0 L 54.84375 0 L 28.453125 -55.90625 L 19.78125 -44.484375 L 19.78125 0 L 12.265625 0 L 12.265625 -112.140625 L 19.78125 -112.140625 L 19.78125 -52.765625 C 22.394531 -57.671875 33.441406 -77.460938 52.921875 -112.140625 L 61.125 -112.140625 L 32.984375 -62.8125 Z M 63.28125 0 "/></g></g></g><path stroke-linecap="round" transform="matrix(0.000000000000000046, 0.74879, -0.75, 0.000000000000000046, 185.268302, 83.418043)" fill="none" stroke-linejoin="miter" d="M 2.498726 2.498361 L 229.881307 2.498361 " stroke="#c89a5b" stroke-width="5" stroke-opacity="1" stroke-miterlimit="4"/><g fill="#c89a5b" fill-opacity="1"><g transform="translate(12.893298, 363.578483)"><g><path d="M 10.703125 -25.984375 C 8.648438 -25.984375 7.015625 -24.894531 5.796875 -22.71875 C 4.585938 -20.550781 3.984375 -17.546875 3.984375 -13.703125 C 3.984375 -11.191406 4.257812 -9.007812 4.8125 -7.15625 C 5.375 -5.300781 6.175781 -3.875 7.21875 -2.875 C 8.269531 -1.875 9.488281 -1.375 10.875 -1.375 C 12.289062 -1.375 13.507812 -1.632812 14.53125 -2.15625 L 14.53125 -0.46875 C 13.5625 0.09375 12.285156 0.375 10.703125 0.375 C 8.972656 0.375 7.457031 -0.179688 6.15625 -1.296875 C 4.851562 -2.421875 3.847656 -4.046875 3.140625 -6.171875 C 2.429688 -8.296875 2.078125 -10.816406 2.078125 -13.734375 C 2.078125 -18.085938 2.847656 -21.507812 4.390625 -24 C 5.941406 -26.5 8.0625 -27.75 10.75 -27.75 C 12.414062 -27.75 13.867188 -27.363281 15.109375 -26.59375 L 14.28125 -24.984375 C 13.226562 -25.648438 12.035156 -25.984375 10.703125 -25.984375 Z M 10.703125 -25.984375 "/></g></g></g><g fill="#c89a5b" fill-opacity="1"><g transform="translate(40.357527, 363.578483)"><g><path d="M 17.828125 -13.703125 C 17.828125 -9.171875 17.148438 -5.691406 15.796875 -3.265625 C 14.441406 -0.835938 12.488281 0.375 9.9375 0.375 C 7.363281 0.375 5.410156 -0.847656 4.078125 -3.296875 C 2.742188 -5.742188 2.078125 -9.222656 2.078125 -13.734375 C 2.078125 -18.441406 2.734375 -21.945312 4.046875 -24.25 C 5.367188 -26.550781 7.351562 -27.703125 10 -27.703125 C 12.539062 -27.703125 14.476562 -26.488281 15.8125 -24.0625 C 17.15625 -21.644531 17.828125 -18.191406 17.828125 -13.703125 Z M 3.984375 -13.703125 C 3.984375 -9.640625 4.488281 -6.566406 5.5 -4.484375 C 6.519531 -2.410156 8 -1.375 9.9375 -1.375 C 11.894531 -1.375 13.378906 -2.398438 14.390625 -4.453125 C 15.410156 -6.515625 15.921875 -9.597656 15.921875 -13.703125 C 15.921875 -17.742188 15.421875 -20.796875 14.421875 -22.859375 C 13.421875 -24.921875 11.945312 -25.953125 10 -25.953125 C 7.988281 -25.953125 6.484375 -24.90625 5.484375 -22.8125 C 4.484375 -20.726562 3.984375 -17.691406 3.984375 -13.703125 Z M 3.984375 -13.703125 "/></g></g></g><g fill="#c89a5b" fill-opacity="1"><g transform="translate(71.649924, 363.578483)"><g><path d="M 17.375 0 L 15.046875 0 L 4.703125 -24.5 L 4.5625 -24.5 C 4.707031 -22.800781 4.78125 -21.164062 4.78125 -19.59375 L 4.78125 0 L 2.984375 0 L 2.984375 -27.3125 L 5.359375 -27.3125 L 15.625 -3.109375 L 15.734375 -3.109375 C 15.628906 -5.148438 15.578125 -6.851562 15.578125 -8.21875 L 15.578125 -27.3125 L 17.375 -27.3125 Z M 17.375 0 "/></g></g></g><g fill="#c89a5b" fill-opacity="1"><g transform="translate(103.409154, 363.578483)"><g><path d="M 13.46875 -7.15625 C 13.46875 -4.914062 12.84375 -3.097656 11.59375 -1.703125 C 10.351562 -0.316406 8.773438 0.375 6.859375 0.375 C 4.679688 0.375 2.929688 0.0546875 1.609375 -0.578125 L 1.609375 -2.5625 C 2.253906 -2.195312 3.054688 -1.90625 4.015625 -1.6875 C 4.972656 -1.476562 5.921875 -1.375 6.859375 -1.375 C 8.253906 -1.375 9.398438 -1.90625 10.296875 -2.96875 C 11.191406 -4.03125 11.640625 -5.375 11.640625 -7 C 11.640625 -8.507812 11.320312 -9.707031 10.6875 -10.59375 C 10.050781 -11.476562 8.835938 -12.363281 7.046875 -13.25 C 5.640625 -13.957031 4.585938 -14.644531 3.890625 -15.3125 C 3.191406 -15.976562 2.671875 -16.753906 2.328125 -17.640625 C 1.992188 -18.523438 1.828125 -19.582031 1.828125 -20.8125 C 1.828125 -22.15625 2.097656 -23.347656 2.640625 -24.390625 C 3.191406 -25.441406 3.957031 -26.253906 4.9375 -26.828125 C 5.925781 -27.410156 7.007812 -27.703125 8.1875 -27.703125 C 9.238281 -27.703125 10.195312 -27.582031 11.0625 -27.34375 C 11.9375 -27.113281 12.617188 -26.863281 13.109375 -26.59375 L 12.40625 -24.828125 C 11.019531 -25.535156 9.613281 -25.890625 8.1875 -25.890625 C 6.84375 -25.890625 5.75 -25.429688 4.90625 -24.515625 C 4.0625 -23.609375 3.640625 -22.398438 3.640625 -20.890625 C 3.640625 -19.359375 3.941406 -18.164062 4.546875 -17.3125 C 5.160156 -16.46875 6.359375 -15.59375 8.140625 -14.6875 C 9.984375 -13.789062 11.332031 -12.738281 12.1875 -11.53125 C 13.039062 -10.332031 13.46875 -8.875 13.46875 -7.15625 Z M 13.46875 -7.15625 "/></g></g></g><g fill="#c89a5b" fill-opacity="1"><g transform="translate(129.92103, 363.578483)"><g><path d="M 7.53125 0 L 5.703125 0 L 5.703125 -25.5625 L 0.265625 -25.5625 L 0.265625 -27.3125 L 12.96875 -27.3125 L 12.96875 -25.5625 L 7.53125 -25.5625 Z M 7.53125 0 "/></g></g></g><g fill="#c89a5b" fill-opacity="1"><g transform="translate(154.602864, 363.578483)"><g><path d="M 4.828125 -11.9375 L 4.828125 0 L 2.984375 0 L 2.984375 -27.3125 L 6.71875 -27.3125 C 9.382812 -27.3125 11.332031 -26.679688 12.5625 -25.421875 C 13.800781 -24.171875 14.421875 -22.289062 14.421875 -19.78125 C 14.421875 -17.894531 14.082031 -16.335938 13.40625 -15.109375 C 12.738281 -13.890625 11.613281 -12.976562 10.03125 -12.375 L 15.453125 0 L 13.390625 0 L 8.296875 -11.9375 Z M 4.828125 -13.625 L 7.375 -13.625 C 9.03125 -13.625 10.304688 -14.132812 11.203125 -15.15625 C 12.109375 -16.175781 12.5625 -17.695312 12.5625 -19.71875 C 12.5625 -21.769531 12.101562 -23.25 11.1875 -24.15625 C 10.269531 -25.0625 8.828125 -25.515625 6.859375 -25.515625 L 4.828125 -25.515625 Z M 4.828125 -13.625 "/></g></g></g><g fill="#c89a5b" fill-opacity="1"><g transform="translate(182.253834, 363.578483)"><g><path d="M 16.140625 -27.3125 L 16.140625 -8.875 C 16.140625 -2.707031 13.9375 0.375 9.53125 0.375 C 7.320312 0.375 5.640625 -0.421875 4.484375 -2.015625 C 3.328125 -3.609375 2.75 -5.894531 2.75 -8.875 L 2.75 -27.3125 L 4.59375 -27.3125 L 4.59375 -8.65625 C 4.59375 -6.28125 5.019531 -4.472656 5.875 -3.234375 C 6.726562 -1.992188 7.945312 -1.375 9.53125 -1.375 C 11.101562 -1.375 12.289062 -1.992188 13.09375 -3.234375 C 13.90625 -4.472656 14.3125 -6.300781 14.3125 -8.71875 L 14.3125 -27.3125 Z M 16.140625 -27.3125 "/></g></g></g><g fill="#c89a5b" fill-opacity="1"><g transform="translate(212.5565, 363.578483)"><g><path d="M 10.703125 -25.984375 C 8.648438 -25.984375 7.015625 -24.894531 5.796875 -22.71875 C 4.585938 -20.550781 3.984375 -17.546875 3.984375 -13.703125 C 3.984375 -11.191406 4.257812 -9.007812 4.8125 -7.15625 C 5.375 -5.300781 6.175781 -3.875 7.21875 -2.875 C 8.269531 -1.875 9.488281 -1.375 10.875 -1.375 C 12.289062 -1.375 13.507812 -1.632812 14.53125 -2.15625 L 14.53125 -0.46875 C 13.5625 0.09375 12.285156 0.375 10.703125 0.375 C 8.972656 0.375 7.457031 -0.179688 6.15625 -1.296875 C 4.851562 -2.421875 3.847656 -4.046875 3.140625 -6.171875 C 2.429688 -8.296875 2.078125 -10.816406 2.078125 -13.734375 C 2.078125 -18.085938 2.847656 -21.507812 4.390625 -24 C 5.941406 -26.5 8.0625 -27.75 10.75 -27.75 C 12.414062 -27.75 13.867188 -27.363281 15.109375 -26.59375 L 14.28125 -24.984375 C 13.226562 -25.648438 12.035156 -25.984375 10.703125 -25.984375 Z M 10.703125 -25.984375 "/></g></g></g><g fill="#c89a5b" fill-opacity="1"><g transform="translate(240.020731, 363.578483)"><g><path d="M 7.53125 0 L 5.703125 0 L 5.703125 -25.5625 L 0.265625 -25.5625 L 0.265625 -27.3125 L 12.96875 -27.3125 L 12.96875 -25.5625 L 7.53125 -25.5625 Z M 7.53125 0 "/></g></g></g><g fill="#c89a5b" fill-opacity="1"><g transform="translate(264.702564, 363.578483)"><g><path d="M 2.984375 0 L 2.984375 -27.3125 L 4.828125 -27.3125 L 4.828125 0 Z M 2.984375 0 "/></g></g></g><g fill="#c89a5b" fill-opacity="1"><g transform="translate(283.912928, 363.578483)"><g><path d="M 17.828125 -13.703125 C 17.828125 -9.171875 17.148438 -5.691406 15.796875 -3.265625 C 14.441406 -0.835938 12.488281 0.375 9.9375 0.375 C 7.363281 0.375 5.410156 -0.847656 4.078125 -3.296875 C 2.742188 -5.742188 2.078125 -9.222656 2.078125 -13.734375 C 2.078125 -18.441406 2.734375 -21.945312 4.046875 -24.25 C 5.367188 -26.550781 7.351562 -27.703125 10 -27.703125 C 12.539062 -27.703125 14.476562 -26.488281 15.8125 -24.0625 C 17.15625 -21.644531 17.828125 -18.191406 17.828125 -13.703125 Z M 3.984375 -13.703125 C 3.984375 -9.640625 4.488281 -6.566406 5.5 -4.484375 C 6.519531 -2.410156 8 -1.375 9.9375 -1.375 C 11.894531 -1.375 13.378906 -2.398438 14.390625 -4.453125 C 15.410156 -6.515625 15.921875 -9.597656 15.921875 -13.703125 C 15.921875 -17.742188 15.421875 -20.796875 14.421875 -22.859375 C 13.421875 -24.921875 11.945312 -25.953125 10 -25.953125 C 7.988281 -25.953125 6.484375 -24.90625 5.484375 -22.8125 C 4.484375 -20.726562 3.984375 -17.691406 3.984375 -13.703125 Z M 3.984375 -13.703125 "/></g></g></g><g fill="#c89a5b" fill-opacity="1"><g transform="translate(315.205325, 363.578483)"><g><path d="M 17.375 0 L 15.046875 0 L 4.703125 -24.5 L 4.5625 -24.5 C 4.707031 -22.800781 4.78125 -21.164062 4.78125 -19.59375 L 4.78125 0 L 2.984375 0 L 2.984375 -27.3125 L 5.359375 -27.3125 L 15.625 -3.109375 L 15.734375 -3.109375 C 15.628906 -5.148438 15.578125 -6.851562 15.578125 -8.21875 L 15.578125 -27.3125 L 17.375 -27.3125 Z M 17.375 0 "/></g></g></g><g fill="#c89a5b" fill-opacity="1"><g transform="translate(346.964555, 363.578483)"><g><path d="M 13.46875 -7.15625 C 13.46875 -4.914062 12.84375 -3.097656 11.59375 -1.703125 C 10.351562 -0.316406 8.773438 0.375 6.859375 0.375 C 4.679688 0.375 2.929688 0.0546875 1.609375 -0.578125 L 1.609375 -2.5625 C 2.253906 -2.195312 3.054688 -1.90625 4.015625 -1.6875 C 4.972656 -1.476562 5.921875 -1.375 6.859375 -1.375 C 8.253906 -1.375 9.398438 -1.90625 10.296875 -2.96875 C 11.191406 -4.03125 11.640625 -5.375 11.640625 -7 C 11.640625 -8.507812 11.320312 -9.707031 10.6875 -10.59375 C 10.050781 -11.476562 8.835938 -12.363281 7.046875 -13.25 C 5.640625 -13.957031 4.585938 -14.644531 3.890625 -15.3125 C 3.191406 -15.976562 2.671875 -16.753906 2.328125 -17.640625 C 1.992188 -18.523438 1.828125 -19.582031 1.828125 -20.8125 C 1.828125 -22.15625 2.097656 -23.347656 2.640625 -24.390625 C 3.191406 -25.441406 3.957031 -26.253906 4.9375 -26.828125 C 5.925781 -27.410156 7.007812 -27.703125 8.1875 -27.703125 C 9.238281 -27.703125 10.195312 -27.582031 11.0625 -27.34375 C 11.9375 -27.113281 12.617188 -26.863281 13.109375 -26.59375 L 12.40625 -24.828125 C 11.019531 -25.535156 9.613281 -25.890625 8.1875 -25.890625 C 6.84375 -25.890625 5.75 -25.429688 4.90625 -24.515625 C 4.0625 -23.609375 3.640625 -22.398438 3.640625 -20.890625 C 3.640625 -19.359375 3.941406 -18.164062 4.546875 -17.3125 C 5.160156 -16.46875 6.359375 -15.59375 8.140625 -14.6875 C 9.984375 -13.789062 11.332031 -12.738281 12.1875 -11.53125 C 13.039062 -10.332031 13.46875 -8.875 13.46875 -7.15625 Z M 13.46875 -7.15625 "/></g></g></g></svg>