<svg xmlns="http://www.w3.org/2000/svg" xmlns:xlink="http://www.w3.org/1999/xlink" width="690" zoomAndPan="magnify" viewBox="0 0 517.5 248.999984" height="332" preserveAspectRatio="xMidYMid meet" version="1.0"><defs><g/><clipPath id="bdafcc14c1"><path d="M 75.472656 75.550781 L 161.722656 75.550781 L 161.722656 173.800781 L 75.472656 173.800781 Z M 75.472656 75.550781 " clip-rule="nonzero"/></clipPath></defs><g fill="#c89a5b" fill-opacity="1"><g transform="translate(176.564, 145.182832)"><g><path d="M 9.921875 -24.078125 C 8.015625 -24.078125 6.5 -23.066406 5.375 -21.046875 C 4.25 -19.035156 3.6875 -16.25 3.6875 -12.6875 C 3.6875 -10.363281 3.945312 -8.34375 4.46875 -6.625 C 4.988281 -4.90625 5.734375 -3.582031 6.703125 -2.65625 C 7.671875 -1.738281 8.796875 -1.28125 10.078125 -1.28125 C 11.390625 -1.28125 12.519531 -1.515625 13.46875 -1.984375 L 13.46875 -0.4375 C 12.570312 0.0820312 11.390625 0.34375 9.921875 0.34375 C 8.316406 0.34375 6.910156 -0.171875 5.703125 -1.203125 C 4.492188 -2.242188 3.5625 -3.75 2.90625 -5.71875 C 2.25 -7.6875 1.921875 -10.019531 1.921875 -12.71875 C 1.921875 -16.757812 2.640625 -19.929688 4.078125 -22.234375 C 5.515625 -24.546875 7.472656 -25.703125 9.953125 -25.703125 C 11.503906 -25.703125 12.851562 -25.347656 14 -24.640625 L 13.21875 -23.140625 C 12.25 -23.765625 11.148438 -24.078125 9.921875 -24.078125 Z M 9.921875 -24.078125 "/></g></g></g><g fill="#c89a5b" fill-opacity="1"><g transform="translate(196.444631, 145.182832)"><g><path d="M 16.515625 -12.6875 C 16.515625 -8.5 15.890625 -5.28125 14.640625 -3.03125 C 13.390625 -0.78125 11.578125 0.34375 9.203125 0.34375 C 6.816406 0.34375 5.003906 -0.785156 3.765625 -3.046875 C 2.535156 -5.316406 1.921875 -8.539062 1.921875 -12.71875 C 1.921875 -17.082031 2.53125 -20.332031 3.75 -22.46875 C 4.976562 -24.601562 6.816406 -25.671875 9.265625 -25.671875 C 11.617188 -25.671875 13.414062 -24.546875 14.65625 -22.296875 C 15.894531 -20.054688 16.515625 -16.851562 16.515625 -12.6875 Z M 3.6875 -12.6875 C 3.6875 -8.925781 4.15625 -6.082031 5.09375 -4.15625 C 6.039062 -2.238281 7.410156 -1.28125 9.203125 -1.28125 C 11.015625 -1.28125 12.390625 -2.234375 13.328125 -4.140625 C 14.273438 -6.046875 14.75 -8.894531 14.75 -12.6875 C 14.75 -16.4375 14.285156 -19.265625 13.359375 -21.171875 C 12.441406 -23.085938 11.078125 -24.046875 9.265625 -24.046875 C 7.398438 -24.046875 6.003906 -23.078125 5.078125 -21.140625 C 4.148438 -19.210938 3.6875 -16.394531 3.6875 -12.6875 Z M 3.6875 -12.6875 "/></g></g></g><g fill="#c89a5b" fill-opacity="1"><g transform="translate(219.872446, 145.182832)"><g><path d="M 16.09375 0 L 13.9375 0 L 4.359375 -22.6875 L 4.21875 -22.6875 C 4.363281 -21.125 4.4375 -19.613281 4.4375 -18.15625 L 4.4375 0 L 2.765625 0 L 2.765625 -25.3125 L 4.96875 -25.3125 L 14.46875 -2.875 L 14.578125 -2.875 C 14.484375 -4.769531 14.4375 -6.347656 14.4375 -7.609375 L 14.4375 -25.3125 L 16.09375 -25.3125 Z M 16.09375 0 "/></g></g></g><g fill="#c89a5b" fill-opacity="1"><g transform="translate(243.732845, 145.182832)"><g><path d="M 12.484375 -6.625 C 12.484375 -4.550781 11.90625 -2.867188 10.75 -1.578125 C 9.59375 -0.296875 8.128906 0.34375 6.359375 0.34375 C 4.335938 0.34375 2.710938 0.0507812 1.484375 -0.53125 L 1.484375 -2.375 C 2.085938 -2.039062 2.832031 -1.773438 3.71875 -1.578125 C 4.613281 -1.378906 5.492188 -1.28125 6.359375 -1.28125 C 7.648438 -1.28125 8.707031 -1.769531 9.53125 -2.75 C 10.363281 -3.726562 10.78125 -4.972656 10.78125 -6.484375 C 10.78125 -7.890625 10.484375 -9 9.890625 -9.8125 C 9.304688 -10.632812 8.1875 -11.457031 6.53125 -12.28125 C 5.21875 -12.9375 4.238281 -13.570312 3.59375 -14.1875 C 2.945312 -14.800781 2.46875 -15.519531 2.15625 -16.34375 C 1.851562 -17.164062 1.703125 -18.144531 1.703125 -19.28125 C 1.703125 -20.53125 1.953125 -21.640625 2.453125 -22.609375 C 2.960938 -23.578125 3.671875 -24.328125 4.578125 -24.859375 C 5.492188 -25.398438 6.492188 -25.671875 7.578125 -25.671875 C 8.554688 -25.671875 9.445312 -25.5625 10.25 -25.34375 C 11.050781 -25.125 11.6875 -24.890625 12.15625 -24.640625 L 11.5 -23 C 10.21875 -23.664062 8.910156 -24 7.578125 -24 C 6.335938 -24 5.328125 -23.570312 4.546875 -22.71875 C 3.765625 -21.875 3.375 -20.753906 3.375 -19.359375 C 3.375 -17.929688 3.65625 -16.828125 4.21875 -16.046875 C 4.789062 -15.265625 5.898438 -14.453125 7.546875 -13.609375 C 9.253906 -12.773438 10.503906 -11.800781 11.296875 -10.6875 C 12.085938 -9.570312 12.484375 -8.21875 12.484375 -6.625 Z M 12.484375 -6.625 "/></g></g></g><g fill="#c89a5b" fill-opacity="1"><g transform="translate(262.731006, 145.182832)"><g><path d="M 6.96875 0 L 5.28125 0 L 5.28125 -23.6875 L 0.25 -23.6875 L 0.25 -25.3125 L 12.015625 -25.3125 L 12.015625 -23.6875 L 6.96875 -23.6875 Z M 6.96875 0 "/></g></g></g><g fill="#c89a5b" fill-opacity="1"><g transform="translate(280.033445, 145.182832)"><g><path d="M 4.46875 -11.0625 L 4.46875 0 L 2.765625 0 L 2.765625 -25.3125 L 6.234375 -25.3125 C 8.703125 -25.3125 10.503906 -24.726562 11.640625 -23.5625 C 12.785156 -22.394531 13.359375 -20.648438 13.359375 -18.328125 C 13.359375 -16.578125 13.046875 -15.132812 12.421875 -14 C 11.804688 -12.875 10.765625 -12.023438 9.296875 -11.453125 L 14.3125 0 L 12.40625 0 L 7.6875 -11.0625 Z M 4.46875 -12.625 L 6.84375 -12.625 C 8.375 -12.625 9.554688 -13.09375 10.390625 -14.03125 C 11.222656 -14.976562 11.640625 -16.390625 11.640625 -18.265625 C 11.640625 -20.171875 11.210938 -21.539062 10.359375 -22.375 C 9.515625 -23.21875 8.179688 -23.640625 6.359375 -23.640625 L 4.46875 -23.640625 Z M 4.46875 -12.625 "/></g></g></g><g fill="#c89a5b" fill-opacity="1"><g transform="translate(300.087114, 145.182832)"><g><path d="M 14.953125 -25.3125 L 14.953125 -8.21875 C 14.953125 -2.507812 12.910156 0.34375 8.828125 0.34375 C 6.785156 0.34375 5.226562 -0.390625 4.15625 -1.859375 C 3.082031 -3.335938 2.546875 -5.457031 2.546875 -8.21875 L 2.546875 -25.3125 L 4.265625 -25.3125 L 4.265625 -8.015625 C 4.265625 -5.816406 4.65625 -4.144531 5.4375 -3 C 6.226562 -1.851562 7.359375 -1.28125 8.828125 -1.28125 C 10.285156 -1.28125 11.390625 -1.851562 12.140625 -3 C 12.890625 -4.144531 13.265625 -5.835938 13.265625 -8.078125 L 13.265625 -25.3125 Z M 14.953125 -25.3125 "/></g></g></g><g fill="#c89a5b" fill-opacity="1"><g transform="translate(322.597857, 145.182832)"><g><path d="M 9.921875 -24.078125 C 8.015625 -24.078125 6.5 -23.066406 5.375 -21.046875 C 4.25 -19.035156 3.6875 -16.25 3.6875 -12.6875 C 3.6875 -10.363281 3.945312 -8.34375 4.46875 -6.625 C 4.988281 -4.90625 5.734375 -3.582031 6.703125 -2.65625 C 7.671875 -1.738281 8.796875 -1.28125 10.078125 -1.28125 C 11.390625 -1.28125 12.519531 -1.515625 13.46875 -1.984375 L 13.46875 -0.4375 C 12.570312 0.0820312 11.390625 0.34375 9.921875 0.34375 C 8.316406 0.34375 6.910156 -0.171875 5.703125 -1.203125 C 4.492188 -2.242188 3.5625 -3.75 2.90625 -5.71875 C 2.25 -7.6875 1.921875 -10.019531 1.921875 -12.71875 C 1.921875 -16.757812 2.640625 -19.929688 4.078125 -22.234375 C 5.515625 -24.546875 7.472656 -25.703125 9.953125 -25.703125 C 11.503906 -25.703125 12.851562 -25.347656 14 -24.640625 L 13.21875 -23.140625 C 12.25 -23.765625 11.148438 -24.078125 9.921875 -24.078125 Z M 9.921875 -24.078125 "/></g></g></g><g fill="#c89a5b" fill-opacity="1"><g transform="translate(342.478493, 145.182832)"><g><path d="M 6.96875 0 L 5.28125 0 L 5.28125 -23.6875 L 0.25 -23.6875 L 0.25 -25.3125 L 12.015625 -25.3125 L 12.015625 -23.6875 L 6.96875 -23.6875 Z M 6.96875 0 "/></g></g></g><g fill="#c89a5b" fill-opacity="1"><g transform="translate(359.780932, 145.182832)"><g><path d="M 2.765625 0 L 2.765625 -25.3125 L 4.46875 -25.3125 L 4.46875 0 Z M 2.765625 0 "/></g></g></g><g fill="#c89a5b" fill-opacity="1"><g transform="translate(372.013494, 145.182832)"><g><path d="M 16.515625 -12.6875 C 16.515625 -8.5 15.890625 -5.28125 14.640625 -3.03125 C 13.390625 -0.78125 11.578125 0.34375 9.203125 0.34375 C 6.816406 0.34375 5.003906 -0.785156 3.765625 -3.046875 C 2.535156 -5.316406 1.921875 -8.539062 1.921875 -12.71875 C 1.921875 -17.082031 2.53125 -20.332031 3.75 -22.46875 C 4.976562 -24.601562 6.816406 -25.671875 9.265625 -25.671875 C 11.617188 -25.671875 13.414062 -24.546875 14.65625 -22.296875 C 15.894531 -20.054688 16.515625 -16.851562 16.515625 -12.6875 Z M 3.6875 -12.6875 C 3.6875 -8.925781 4.15625 -6.082031 5.09375 -4.15625 C 6.039062 -2.238281 7.410156 -1.28125 9.203125 -1.28125 C 11.015625 -1.28125 12.390625 -2.234375 13.328125 -4.140625 C 14.273438 -6.046875 14.75 -8.894531 14.75 -12.6875 C 14.75 -16.4375 14.285156 -19.265625 13.359375 -21.171875 C 12.441406 -23.085938 11.078125 -24.046875 9.265625 -24.046875 C 7.398438 -24.046875 6.003906 -23.078125 5.078125 -21.140625 C 4.148438 -19.210938 3.6875 -16.394531 3.6875 -12.6875 Z M 3.6875 -12.6875 "/></g></g></g><g fill="#c89a5b" fill-opacity="1"><g transform="translate(395.441314, 145.182832)"><g><path d="M 16.09375 0 L 13.9375 0 L 4.359375 -22.6875 L 4.21875 -22.6875 C 4.363281 -21.125 4.4375 -19.613281 4.4375 -18.15625 L 4.4375 0 L 2.765625 0 L 2.765625 -25.3125 L 4.96875 -25.3125 L 14.46875 -2.875 L 14.578125 -2.875 C 14.484375 -4.769531 14.4375 -6.347656 14.4375 -7.609375 L 14.4375 -25.3125 L 16.09375 -25.3125 Z M 16.09375 0 "/></g></g></g><g fill="#c89a5b" fill-opacity="1"><g transform="translate(419.301717, 145.182832)"><g><path d="M 12.484375 -6.625 C 12.484375 -4.550781 11.90625 -2.867188 10.75 -1.578125 C 9.59375 -0.296875 8.128906 0.34375 6.359375 0.34375 C 4.335938 0.34375 2.710938 0.0507812 1.484375 -0.53125 L 1.484375 -2.375 C 2.085938 -2.039062 2.832031 -1.773438 3.71875 -1.578125 C 4.613281 -1.378906 5.492188 -1.28125 6.359375 -1.28125 C 7.648438 -1.28125 8.707031 -1.769531 9.53125 -2.75 C 10.363281 -3.726562 10.78125 -4.972656 10.78125 -6.484375 C 10.78125 -7.890625 10.484375 -9 9.890625 -9.8125 C 9.304688 -10.632812 8.1875 -11.457031 6.53125 -12.28125 C 5.21875 -12.9375 4.238281 -13.570312 3.59375 -14.1875 C 2.945312 -14.800781 2.46875 -15.519531 2.15625 -16.34375 C 1.851562 -17.164062 1.703125 -18.144531 1.703125 -19.28125 C 1.703125 -20.53125 1.953125 -21.640625 2.453125 -22.609375 C 2.960938 -23.578125 3.671875 -24.328125 4.578125 -24.859375 C 5.492188 -25.398438 6.492188 -25.671875 7.578125 -25.671875 C 8.554688 -25.671875 9.445312 -25.5625 10.25 -25.34375 C 11.050781 -25.125 11.6875 -24.890625 12.15625 -24.640625 L 11.5 -23 C 10.21875 -23.664062 8.910156 -24 7.578125 -24 C 6.335938 -24 5.328125 -23.570312 4.546875 -22.71875 C 3.765625 -21.875 3.375 -20.753906 3.375 -19.359375 C 3.375 -17.929688 3.65625 -16.828125 4.21875 -16.046875 C 4.789062 -15.265625 5.898438 -14.453125 7.546875 -13.609375 C 9.253906 -12.773438 10.503906 -11.800781 11.296875 -10.6875 C 12.085938 -9.570312 12.484375 -8.21875 12.484375 -6.625 Z M 12.484375 -6.625 "/></g></g></g><g clip-path="url(#bdafcc14c1)"><path fill="#c89a5b" d="M 160.25 173.800781 L 76.945312 173.800781 C 76.132812 173.800781 75.476562 173.140625 75.476562 172.328125 L 75.476562 109.414062 C 75.476562 108.960938 75.6875 108.53125 76.046875 108.253906 L 117.699219 75.957031 C 118.226562 75.542969 118.964844 75.542969 119.496094 75.957031 L 161.148438 108.253906 C 161.507812 108.53125 161.71875 108.960938 161.71875 109.414062 L 161.71875 172.328125 C 161.71875 173.140625 161.0625 173.800781 160.25 173.800781 Z M 78.414062 170.859375 L 158.78125 170.859375 L 158.78125 110.136719 L 118.597656 78.980469 L 78.414062 110.136719 Z M 78.414062 170.859375 " fill-opacity="1" fill-rule="nonzero"/></g><g fill="#c89a5b" fill-opacity="1"><g transform="translate(86.275877, 150.97101)"><g><path d="M 20.421875 -27.5625 C 20.421875 -23.570312 19.503906 -20.640625 17.671875 -18.765625 C 15.847656 -16.898438 13.148438 -15.96875 9.578125 -15.96875 L 6.828125 -15.96875 L 6.828125 0 L 4.234375 0 L 4.234375 -38.671875 L 9.515625 -38.671875 C 13.296875 -38.671875 16.054688 -37.78125 17.796875 -36 C 19.546875 -34.21875 20.421875 -31.40625 20.421875 -27.5625 Z M 6.828125 -18.359375 L 9.421875 -18.359375 C 12.453125 -18.359375 14.601562 -19.070312 15.875 -20.5 C 17.144531 -21.925781 17.78125 -24.28125 17.78125 -27.5625 C 17.78125 -30.6875 17.117188 -32.921875 15.796875 -34.265625 C 14.484375 -35.617188 12.453125 -36.296875 9.703125 -36.296875 L 6.828125 -36.296875 Z M 6.828125 -18.359375 "/></g></g></g><g fill="#c89a5b" fill-opacity="1"><g transform="translate(108.490972, 150.97101)"><g/></g></g><g fill="#c89a5b" fill-opacity="1"><g transform="translate(118.673891, 150.97101)"><g/></g></g><g fill="#c89a5b" fill-opacity="1"><g transform="translate(128.854809, 150.97101)"><g><path d="M 21.828125 0 L 18.90625 0 L 9.8125 -19.28125 L 6.828125 -15.34375 L 6.828125 0 L 4.234375 0 L 4.234375 -38.671875 L 6.828125 -38.671875 L 6.828125 -18.203125 C 7.722656 -19.890625 11.53125 -26.710938 18.25 -38.671875 L 21.078125 -38.671875 L 11.375 -21.65625 Z M 21.828125 0 "/></g></g></g><path stroke-linecap="round" transform="matrix(0.000000000000000046, 0.74883, -0.75, 0.000000000000000046, 118.599369, 102.432043)" fill="none" stroke-linejoin="miter" d="M 0.998418 1.002283 L 79.135953 1.002283 " stroke="#c89a5b" stroke-width="2" stroke-opacity="1" stroke-miterlimit="4"/></svg>